<?xml version="1.0" encoding="utf-8"?>
<!-- Generator: Adobe Illustrator 24.3.0, SVG Export Plug-In . SVG Version: 6.00 Build 0)  -->
<svg version="1.1" id="Layer_1" xmlns="http://www.w3.org/2000/svg" xmlns:xlink="http://www.w3.org/1999/xlink" x="0px" y="0px"
	 viewBox="0 0 431.5 331.2" style="enable-background:new 0 0 431.5 331.2;" xml:space="preserve">
<style type="text/css">
	.st0{fill:#E81C6F;}
	.st1{fill:none;}
	.st2{opacity:0.3;fill:#780E39;}
	.st3{fill:#ED4288;}
	.st4{fill:#CF1963;}
	.st5{opacity:0.5;fill:#780E39;}
	.st6{fill:#5C0B2C;}
	.st7{fill:#0A0A0A;}
	.st8{fill:#3D3D3D;}
	.st9{fill:#292929;}
	.st10{fill:#141414;}
	.st11{fill:#FFFFFF;}
	.st12{fill:#ED72A4;}
</style>
<g>
	<path class="st0" d="M118.7,226.8c0-7.1,0-14.2,0-21.4c55.8,44.7,135.1,44.7,190.9,0c0,7.1,0,14.2,0,21.4c-1.4,1.4-2,3.1-2.4,4.7
		c-0.7,3.2-1.2,6.4-1.7,9.5c-0.6,3.4-1.2,6.8-1.9,10.3c-0.2,1-0.6,2-1,3c-2,5.1-6.3,8.4-8.8,6.4c-0.9-0.7-1.4-1.8-2-2.8
		c-0.6-1-1-2.1-1.7-3c-1.4-1.8-3.7-0.9-5.8,2.3c-0.8,1.3-1.5,2.6-2.2,3.9c-0.7,1.3-1.3,2.6-2.1,3.8c-1.8,2.9-4.3,4-6,2.6
		c-0.9-0.7-1.6-1.9-2.2-3c-0.8-1.6-1.4-3.5-2.2-5.2c-0.3-0.7-0.7-1.3-1.1-1.8c-2.2-2.9-6.9-1.8-9.9,2.4c-1.1,1.5-1.8,3.3-2.5,5
		c-0.6,1.5-1,3-1.6,4.5c-0.2,0.5-0.5,1.1-0.8,1.6c-1.4,2.4-4,3-5.3,1.2c-0.7-1-1.1-2.3-1.5-3.5c-0.6-1.8-0.9-3.6-1.6-5.4
		c-1-2.6-2.2-3-5.2-2.3c-4.6,1-7.5,3.9-8.3,8.6c-0.6,3.9-0.3,7.6,0.4,11.3c1.1,6.1,2.4,12.1,3.3,18.2c0.4,2.8,0.5,5.8,0.3,8.8
		c-0.3,4.7-3,7.7-7.4,8.3c-5.3,0.8-8.5-1.4-9.6-6c-0.8-3.4-0.6-6.9-0.1-10.3c1-6.2,2.1-12.3,3.2-18.5c0.6-3.9,1.2-7.8,0.6-11.6
		c-0.2-1.1-0.6-2.3-1.2-3.3c-1.2-2.1-4-3.1-6.5-2.6c-1.5,0.3-2.4,1.3-2.7,2.6c-0.6,2.1-1,4.3-1.4,6.5c-0.4,2.2-0.7,4.5-1.1,6.7
		c-0.2,0.8-0.5,1.6-1,2.3c-1.6,2.4-5.1,2.2-6.3-0.6c-0.9-2-1.2-4.1-1.6-6.2c-0.5-3.2-0.7-6.4-1.2-9.6c-0.1-0.8-0.4-1.6-0.8-2.4
		c-1.2-2.5-3.8-3.5-6-2.2c-1.1,0.7-2.1,1.6-2.6,2.7c-1.2,2.2-2,4.6-3,6.8c-0.7,1.4-1.3,2.9-2.2,4.2c-2.3,3.3-6.4,2.8-9.3-1.3
		c-1.5-2-2.5-4.4-3.6-6.6c-1-2.2-1.8-4.4-2.7-6.7c-0.4-0.9-0.8-1.8-1.3-2.8c-2.7-5.5-6.1-7.5-11.6-7.4c-2.6,0-3.7,2-4.1,4.5
		c-0.6,3.2-0.2,6.9,0.3,10.6c0.6,4.5,1.3,9.1,1.9,13.6c0.3,2.7,0.4,5.4-0.3,7.7c-0.8,2.7-2.8,3.6-5.9,2.4c-0.8-0.3-1.7-0.7-2.5-1.2
		c-3.8-2.3-5.8-5.5-6.3-9.7c-0.4-3.5,0-6.5,0.5-9.4c0.8-4.7,1.8-9.2,2.4-14c0.3-2.2,0.2-4.9-0.3-7.5c-0.9-5.3-4.9-8.5-8.4-10.2
		c-1.3-0.6-2-0.1-2.3,1c-0.5,1.8-0.8,3.8-1.2,5.7c-0.3,1.3-0.5,2.6-0.8,3.8c-0.1,0.4-0.3,0.7-0.5,1c-0.5,0.8-1.3,1-2.5,0.2
		c-1.2-0.8-2.1-2.1-2.5-3.5c-0.6-2.2-1.1-4.4-1.6-6.5c-0.5-2.4-0.8-4.7-1.4-7.2C120.8,229.9,120.1,228.3,118.7,226.8z"/>
	<g>
		<path class="st0" d="M318.4,192.4c0,0-19.5-21.8-60.3-31.6l-44.3,1.5l-1.3,96.7c1.6-0.1,9-0.5,19.5-2l3.2-28.4l60.3,5.7
			c-0.5,1.2-1,2.2-1.6,3.3c12.5-6.9,23.8-16,31.5-28L318.4,192.4z"/>
		<path class="st0" d="M173.6,163.7l-14.9-3.4l-6.3,8.6l-16.1,6.9l-20.7,10.3l-9.8,9.2l-6.3,7.5c0,0,20.2,32.8,64.1,48.6l2.4-5.9
			c0,0,18.8-30.1,20.5-49.5c0,0-0.4,38.7-12.8,58.6c0.3,0.1,0.6,0.2,0.9,0.2c5.8-6,17.3-19.9,20.2-38l-6.2,41
			c3.5,0.6,7.1,1,10.9,1.3h1.6l1.8-96.4L173.6,163.7z"/>
	</g>
	<g>
		<path class="st1" d="M174.6,254.8c-0.3-0.1-0.6-0.2-0.9-0.2c-0.8,1.2-1.6,2.4-2.4,3.5C171.3,258,172.6,256.9,174.6,254.8z"/>
		<path class="st0" d="M174.6,254.8c4.4,1.2,9.1,2.2,14,3l6.2-41C191.9,234.9,180.4,248.8,174.6,254.8z"/>
		<path class="st2" d="M174.6,254.8c4.4,1.2,9.1,2.2,14,3l6.2-41C191.9,234.9,180.4,248.8,174.6,254.8z"/>
		<path class="st0" d="M186.5,195.9c-1.8,19.4-20.5,49.5-20.5,49.5l-2.4,5.9c3.3,1.2,6.6,2.2,10.2,3.2
			C186,234.6,186.5,195.9,186.5,195.9z"/>
		<path class="st2" d="M186.5,195.9c-1.8,19.4-20.5,49.5-20.5,49.5l-2.4,5.9c3.3,1.2,6.6,2.2,10.2,3.2
			C186,234.6,186.5,195.9,186.5,195.9z"/>
	</g>
	<path class="st3" d="M235.1,228.6l-3.2,28.4c16.6-2.5,41-7.8,61.9-19.4c0.6-1.1,1.1-2.1,1.6-3.3L235.1,228.6z"/>
	<path class="st4" d="M198.9,167.7c0,0-7.5-3.4-10.3-2.9c-2.9,0.6-10.3,1.7-10.3,1.7l-11.5-0.6l-8-5.7c0,0-3.4-27-1.7-32.2
		c0,0-6.3-36.2,0.6-62c0,0,2.3-41.9,50.6-46c0,0,29.3,0,43.1,27.6c0,0,15.5,30.4,11.5,54l-2.3,27.6l1.7,12.1c0,0,0,5.7-0.6,7.5
		c-0.6,1.7-5.7,7.5-5.7,7.5l2.3,4.6l-13.2,4.6l-27.6,2.3H198.9z"/>
	<path class="st5" d="M226.4,157.3c0,0,16.5-5,27.1-27.3C253.9,138.1,252.8,159.2,226.4,157.3z"/>
	<path class="st5" d="M203.7,161.2c0,0-17.2-1.6-32-21.3C173,147.8,178.2,168.3,203.7,161.2z"/>
	<path class="st6" d="M194.3,155.7c0,0-25.9-7.5-27-27c0,0-13.8-66.6,6.3-84.5c0,0,7.5-16.1,27-18.4c0,0,23-5.7,39.6,13.2
		c0,0,21.8,36.8,17.2,57.5c0,0-6.9,38.5-16.7,48.3l-12.1,5.7l-5.2,4.6C223.6,155.1,199.4,160.8,194.3,155.7z"/>
	<g>
		<path class="st7" d="M240.6,43.9c-1.9-2.3-15-14.7-32.1-14.8v0c0,0-0.1,0-0.1,0c0,0-0.1,0-0.1,0v0c-17.1,0.1-30.2,12.5-32.1,14.8
			c-12.9,15.4-13.3,36.8-12.8,42.2c1.4,12.5,4.9,29.2,12.6,41.8c8.2,13.5,20.9,22.5,31.3,22.5c0.4,0,0.7,0,1.1,0c0.4,0,0.7,0,1.1,0
			c10.4,0,23.1-9,31.3-22.5c7.7-12.6,11.2-29.3,12.6-41.8C254,80.7,253.6,59.3,240.6,43.9z"/>
		<path class="st8" d="M162.1,83.5c0,0,69.2,4.3,91.4-0.4l-0.4,4.9c0,0-57.8,3.9-89.9,0.4C163.3,88.4,162.1,86.2,162.1,83.5z"/>
		<polygon class="st9" points="203.9,89.9 204.3,150.1 208.5,150.4 212.6,150.3 213.7,89.7 		"/>
		<polygon class="st10" points="207.4,150.5 207.2,90.1 209.9,89.9 209.5,150.5 		"/>
		<g>
			<path class="st11" d="M231.4,39.6c0,0-23.2-7.9-45.4,0.2l-1.3,39.9c0,0,31.8-3.8,46.8,0.2L231.4,39.6z M227,73.6
				c-10.5-1.9-36.7,0-36.7,0l0.4-31.8c9.4-5.6,36.3-0.4,36.3-0.4V73.6z"/>
		</g>
	</g>
	<path class="st2" d="M123,190.7c2.6-1.2,10.9-5.7,10.9-5.7l2.9,8.6c0,0,5.7,41.4,15.5,48.8c0,0-14.4-1.1-22.4-41.9l-0.6,14.4
		l-5.2-12.1l-6.3,8.6C117.9,211.4,102.4,200.5,123,190.7z"/>
	<path class="st2" d="M308.2,186.7c-2.6-1.2-10.9-5.7-10.9-5.7l-2.9,8.6c0,0-5.7,41.4-15.5,48.8c0,0,14.4-1.1,22.4-41.9l0.6,14.4
		l5.2-12.1l6.3,8.6C313.4,207.4,328.9,196.4,308.2,186.7z"/>
	<circle class="st12" cx="254.9" cy="246.7" r="3.2"/>
	<polygon class="st2" points="232.8,248.7 250.6,253.9 232.2,253.3 	"/>
	<polygon class="st7" points="213.8,156.8 202.9,158 202.8,162.7 213.7,162.3 	"/>
	<path class="st7" d="M202.8,162.7l-1.8,96.4h11c0,0,0.1,0,0.3,0l1.3-96.7L202.8,162.7z"/>
	<path class="st5" d="M158.1,151.1l23,16.1C181.1,167.1,162.7,174.6,158.1,151.1z"/>
</g>
</svg>
